<svg width="127" height="39" viewBox="0 0 127 39" fill="none" xmlns="http://www.w3.org/2000/svg">
<path fill-rule="evenodd" clip-rule="evenodd" d="M21.7191 14.3919C20.6603 14.3919 19.7863 15.1885 19.6445 16.2206V24.462L11.5812 14.3919H8.08849V30.753H9.73411C10.8722 30.753 11.7941 29.8301 11.8282 28.6835V20.35L20.1617 30.753H23.3839V14.3919H21.7191Z" fill="#1F2121"/>
<path fill-rule="evenodd" clip-rule="evenodd" d="M58.4249 22.6186V22.5743C58.4249 19.7678 56.2601 17.4293 53.2105 17.4293C50.1601 17.4293 48.0489 19.7197 48.0489 22.5232V22.5743C48.0489 25.374 50.212 27.7122 53.263 27.7122C56.3087 27.7122 58.4249 25.4257 58.4249 22.6186ZM44.0892 22.6185V22.5742C44.0892 17.9199 47.948 14.1141 53.2626 14.1141C58.5725 14.1141 62.3821 17.8733 62.3821 22.5232V22.5742C62.3821 27.2247 58.5204 31.0317 53.2102 31.0317C47.8997 31.0317 44.0892 27.2681 44.0892 22.6185Z" fill="#1F2121"/>
<path fill-rule="evenodd" clip-rule="evenodd" d="M89.2109 23.9047L91.4974 18.5985L93.7843 23.9047H89.2109ZM93.2924 14.274H89.7993L82.4215 30.753H84.9053C85.7722 30.753 86.5168 30.2156 86.8357 29.4545L87.8549 27.0782H95.136L96.1672 29.4841C96.4936 30.2307 97.2266 30.753 98.0836 30.753H100.666L93.2924 14.274Z" fill="#1F2121"/>
<path fill-rule="evenodd" clip-rule="evenodd" d="M38.746 15.6077C39.0387 14.8953 39.73 14.3919 40.5407 14.3919H43.2991L36.3389 30.867H32.9993L26.0385 14.3919H28.9049C29.7051 14.3919 30.3988 14.8882 30.6915 15.5941L34.7186 25.913L38.746 15.6077Z" fill="#1F2121"/>
<path fill-rule="evenodd" clip-rule="evenodd" d="M3.78805 28.625V14.3919H0V30.753H1.69163C2.84657 30.753 3.78805 29.8 3.78805 28.625Z" fill="#1F2121"/>
<path fill-rule="evenodd" clip-rule="evenodd" d="M97.7435 16.4035C97.9265 16.4035 98.0296 16.3067 98.0296 16.1629C98.0296 16.0091 97.9196 15.9338 97.7435 15.9338H97.401V16.4035H97.7435ZM97.1962 15.7477H97.7643C98.0296 15.7477 98.2409 15.8873 98.2409 16.1489C98.2409 16.3641 98.1039 16.4899 97.9266 16.5436L98.2872 17.0488H98.0296L97.7081 16.5723H97.4011V17.0488H97.1962V15.7477ZM98.7604 16.4244V16.4176C98.7604 15.8062 98.2957 15.3049 97.6699 15.3049C97.0542 15.3049 96.5828 15.8162 96.5828 16.4244V16.4318C96.5828 17.0408 97.0484 17.5407 97.6699 17.5407C98.2881 17.5407 98.7604 17.0334 98.7604 16.4244ZM96.3939 16.4319V16.4245C96.3939 15.7198 96.9603 15.1235 97.6703 15.1235C98.3919 15.1235 98.9501 15.7119 98.9501 16.4178V16.4245C98.9501 17.1313 98.3846 17.7259 97.6703 17.7259C96.9528 17.7259 96.3939 17.1381 96.3939 16.4319Z" fill="#1F2121"/>
<path fill-rule="evenodd" clip-rule="evenodd" d="M79.1588 26.8397C78.8973 26.5599 78.5231 26.3818 78.1078 26.3818C77.8134 26.3818 77.5391 26.4686 77.3084 26.6289C76.2767 27.3221 75.1803 27.7248 73.8756 27.7248C70.9694 27.7248 68.8797 25.43 68.8797 22.6221V22.5775C68.8797 19.7698 70.9216 17.4307 73.8756 17.4307C75.3698 17.4307 76.4229 17.8653 77.438 18.5845C77.6826 18.7717 77.984 18.8836 78.3125 18.8836C78.7278 18.8836 79.0982 18.7085 79.3632 18.4254L79.3643 18.4262L80.8163 17.0342C79.0432 15.2345 77.076 14.1094 73.7522 14.1094C68.6814 14.1094 64.9149 17.8296 64.9149 22.5335V22.5775C64.9149 27.2303 68.6074 31.0462 73.9016 31.0462C77.15 31.0462 79.0953 30.02 80.6937 28.5169L79.159 26.8391L79.1588 26.8397Z" fill="#1F2121"/>
<path fill-rule="evenodd" clip-rule="evenodd" d="M121.046 12.1806C121.046 13.8413 119.789 15.2179 118.191 15.3773L118.411 17.986L114.295 15.3959H109.353C107.612 15.3959 106.185 13.9499 106.185 12.1806V8.03288C106.185 6.26356 107.612 4.81752 109.353 4.81752H117.878C119.624 4.81752 121.046 6.26356 121.046 8.03288V12.1806ZM117.878 0H109.353C104.985 0 101.43 3.60211 101.43 8.03294V12.1806C101.43 15.1955 103.075 17.8249 105.503 19.1968L101.655 23.2137L112.082 20.2136H117.878C122.247 20.2136 125.802 16.6109 125.802 12.1806V8.03294C125.802 3.60211 122.247 0 117.878 0Z" fill="#02B388"/>
</svg>
