<svg width="573" height="280" viewBox="0 0 573 280" fill="none" xmlns="http://www.w3.org/2000/svg">
<g clip-path="url(#clip0_768_129)">
<path d="M0 106.819V40.3687C0 12.8531 16.8376 0.348434 42.65 0.348434C68.4624 0.348434 85.3265 12.8796 85.3265 40.3952V106.846C85.3265 134.441 68.4889 146.972 42.65 146.972C16.8112 146.972 0 134.432 0 106.819ZM42.65 126.313C53.5133 126.313 58.5964 120.233 58.5964 107.807V39.398C58.5964 27.0521 53.5133 21.0072 42.65 21.0072C31.7868 21.0072 26.7037 27.0874 26.7037 39.398V107.816C26.7037 120.242 31.7868 126.322 42.65 126.322V126.313Z" fill="#002B49"/>
<path d="M101.758 2.20158H128.488V145.11H101.758V2.20158Z" fill="#002B49"/>
<path d="M146.888 2.20158H173.618V122.492H207.479V145.11H146.888V2.20158Z" fill="#002B49"/>
<path d="M215.783 109.855V95.6558H242.513V110.826C242.513 120.021 246.334 124.919 257.197 124.919C268.061 124.919 271.882 120.427 271.882 110.826V107.199C271.882 99.2651 268.952 93.1054 258.971 88.0223L243.316 80.0095C224.034 70.1169 215.809 59.6508 215.809 39.398V37.3506C215.809 12.7737 230.979 0.269012 257.409 0.269012C283.839 0.269012 298.718 13.4708 298.718 37.4653V50.8878H271.988V36.3887C271.988 27.2992 268.167 20.9278 257.303 20.9278C247.031 20.9278 242.619 26.9021 242.619 36.3887V39.4244C242.619 47.0578 245.258 53.4117 255.53 58.7065L271.096 66.7194C290.273 76.6119 298.603 86.8928 298.603 107.243V109.881C298.603 134.538 283.539 147.078 257.215 147.078C230.891 147.078 215.827 133.876 215.827 109.881L215.774 109.855H215.783Z" fill="#002B49"/>
<path d="M331.661 25.093H306.704V2.20158H383.241V25.1106H358.285V145.101H331.661V25.093Z" fill="#002B49"/>
<path d="M391.634 106.819V40.3687C391.634 12.8532 408.471 0.32201 434.31 0.32201C460.149 0.32201 476.987 12.8532 476.987 40.3687V106.819C476.987 134.414 460.149 146.945 434.31 146.945C408.471 146.945 391.634 134.414 391.634 106.819ZM434.31 126.313C445.174 126.313 450.257 120.233 450.257 107.807V39.398C450.257 27.0522 445.174 21.0072 434.31 21.0072C423.447 21.0072 418.364 27.0875 418.364 39.398V107.816C418.364 120.242 423.447 126.322 434.31 126.322V126.313Z" fill="#002B49"/>
<path d="M492.342 2.20158H539.131C562.825 2.20158 572.991 13.0649 572.991 34.3149V66.0222C572.991 87.078 562.825 97.9148 539.131 97.9148H519.072V145.083H492.342V2.20158ZM531.612 77.7503C542.175 77.7503 546.296 73.9292 546.296 64.5485V35.4797C546.296 25.8784 542.184 22.2779 531.612 22.2779H519.081V77.7856H531.612V77.7591V77.7503Z" fill="#002B49"/>
<path d="M573 183.621H0V205.453H573V183.621Z" fill="#00A1E0"/>
<path d="M0 278.946V242.914H11.2692C16.8729 242.914 21.1441 244.468 24.0651 247.609C26.9861 250.724 28.4686 255.172 28.4686 260.917C28.4686 262.77 28.3098 264.482 28.0098 266.097C27.7185 267.703 27.1538 269.318 26.3419 270.924C25.5388 272.53 24.5152 273.907 23.2532 275.054C22.0178 276.21 20.3587 277.119 18.3202 277.843C16.2552 278.566 13.9166 278.919 11.2869 278.919H0V278.946ZM7.29807 272.777H10.5456C13.9784 272.777 16.5552 271.842 18.2496 269.962C19.9439 268.083 20.7999 265.056 20.7999 260.89C20.7999 256.725 19.9175 253.566 18.1702 251.792C16.4229 250.018 13.9078 249.109 10.6603 249.109H7.30689V272.777H7.29807Z" fill="#002B49"/>
<path d="M32.8104 278.946V242.914H47.7243C51.5366 242.914 54.4575 243.912 56.5225 245.862C58.5875 247.821 59.6112 250.318 59.6112 253.345C59.6112 255.816 59.0994 257.802 58.111 259.302C57.1138 260.802 55.9401 261.879 54.5987 262.496C55.6224 263.326 56.346 264.129 56.7696 264.906C57.202 265.709 57.5462 266.997 57.8463 268.771C58.4905 272.045 59.8583 275.451 61.9762 278.937H53.7957C52.1278 276.201 50.9276 273.007 50.204 269.309C49.9128 267.915 49.5069 266.865 48.9685 266.221C48.4302 265.576 47.6272 265.259 46.4976 265.259H40.1085V278.937H32.8104V278.946ZM40.1085 259.072H46.3829C50.1422 259.072 52.0131 257.378 52.0131 253.972C52.0131 252.498 51.5013 251.342 50.5129 250.486C49.5245 249.63 48.1214 249.198 46.3299 249.198H40.082V259.046L40.1085 259.072Z" fill="#002B49"/>
<path d="M64.9501 278.946V242.914H72.2482V278.946H64.9501Z" fill="#002B49"/>
<path d="M75.1251 242.914H83.0409L88.0004 261.296C88.8035 264.544 89.5536 267.844 90.339 271.145L90.5243 271.198C90.842 269.962 91.2744 268.25 91.7863 265.991C92.2981 263.767 92.6687 262.179 92.8629 261.296L97.7959 242.914H105.765L94.416 278.946H86.4473L75.1516 242.914H75.1251Z" fill="#002B49"/>
<path d="M108.633 278.946V242.914H132.971V249.189H115.931V257.237H131.251V263.405H115.931V272.689H133.448V278.937H108.633V278.946Z" fill="#002B49"/>
<path d="M136.289 264.332V258.084H158.854V264.332H136.289Z" fill="#002B49"/>
<path d="M160.946 249.198V242.923H188.311V249.198H178.278V278.928H171.006V249.198H160.946Z" fill="#002B49"/>
<path d="M191.559 278.946V242.914H198.804V257.352H211.441V242.914H218.739V278.946H211.441V263.547H198.804V278.946H191.559Z" fill="#002B49"/>
<path d="M224.943 278.946V242.914H239.857C243.669 242.914 246.59 243.912 248.655 245.862C250.72 247.821 251.744 250.318 251.744 253.345C251.744 255.816 251.232 257.802 250.244 259.302C249.246 260.802 248.073 261.879 246.731 262.496C247.755 263.326 248.479 264.129 248.902 264.906C249.326 265.709 249.679 266.997 249.979 268.771C250.623 272.045 251.991 275.451 254.109 278.937H245.928C244.269 276.201 243.06 273.007 242.337 269.309C242.045 267.915 241.639 266.865 241.101 266.221C240.563 265.576 239.76 265.259 238.63 265.259H232.25V278.937H224.952L224.943 278.946ZM232.241 259.072H238.515C242.275 259.072 244.146 257.378 244.146 253.972C244.146 252.498 243.634 251.342 242.645 250.486C241.648 249.63 240.254 249.198 238.463 249.198H232.215V259.046L232.241 259.072Z" fill="#002B49"/>
<path d="M256.836 265.215V242.923H264.187V265.276C264.187 270.748 266.305 273.51 270.523 273.51C274.741 273.51 276.85 270.774 276.85 265.276V242.923H284.201V265.215C284.201 269.91 283.072 273.501 280.795 275.999C278.518 278.496 275.112 279.723 270.523 279.723C265.934 279.723 262.766 278.514 260.41 276.131C258.018 273.739 256.844 270.095 256.844 265.215H256.836Z" fill="#002B49"/>
<path d="M298.638 260.952C298.638 255.295 300.086 250.733 302.98 247.291C305.875 243.858 309.661 242.111 314.382 242.111C319.103 242.111 322.915 243.832 325.81 247.291C328.704 250.724 330.125 255.287 330.125 260.952C330.125 266.618 328.678 271.145 325.81 274.577C322.915 278.01 319.103 279.731 314.382 279.731C309.661 279.731 305.822 278.01 302.954 274.577C300.086 271.145 298.638 266.609 298.638 260.952ZM306.201 260.952C306.201 264.844 306.925 267.924 308.346 270.156C309.793 272.389 311.778 273.51 314.382 273.51C316.985 273.51 318.971 272.38 320.418 270.156C321.839 267.906 322.562 264.844 322.562 260.978C322.562 257.113 321.839 254.086 320.418 251.827C318.971 249.577 316.985 248.447 314.382 248.447C311.778 248.447 309.793 249.577 308.346 251.827C306.925 254.078 306.201 257.14 306.201 260.978V260.952Z" fill="#002B49"/>
<path d="M334.537 278.946V242.914H341.836V278.946H334.537Z" fill="#002B49"/>
<path d="M348.057 278.946V242.914H355.355V272.698H371.187V278.946H348.057Z" fill="#002B49"/>
<path d="M380.894 260.89C380.894 255.172 382.421 250.618 385.456 247.212C388.483 243.806 392.401 242.111 397.176 242.111C400.37 242.111 403.132 242.994 405.444 244.741C407.757 246.488 409.469 248.686 410.545 251.315L404.271 253.327C403.441 251.854 402.497 250.671 401.403 249.762C400.3 248.853 398.905 248.394 397.14 248.394C394.458 248.394 392.366 249.524 390.778 251.801C389.198 254.078 388.413 257.113 388.413 260.899C388.413 264.685 389.216 267.791 390.804 270.077C392.384 272.354 394.511 273.483 397.14 273.483C398.914 273.483 400.467 272.918 401.862 271.762C403.256 270.606 404.253 269.238 404.844 267.632L411.445 269.697C411.101 270.58 410.669 271.445 410.157 272.301C409.645 273.157 409.001 274.048 408.145 274.957C407.315 275.866 406.371 276.704 405.383 277.375C404.368 278.072 403.159 278.637 401.738 279.06C400.317 279.493 398.791 279.731 397.176 279.731C392.481 279.731 388.589 278.072 385.5 274.719C382.412 271.365 380.885 266.776 380.885 260.899H380.912L380.894 260.89Z" fill="#002B49"/>
<path d="M415.002 278.946V242.914H422.247V257.352H434.884V242.914H442.182V278.946H434.884V263.547H422.247V278.946H415.002Z" fill="#002B49"/>
<path d="M444.723 278.946L457.44 242.914H465.223L477.94 278.946H470.236L467.685 270.898H454.969L452.419 278.946H444.715H444.723ZM456.769 265.003H465.841L463.564 257.387C462.655 254.325 461.949 251.889 461.446 250.036H461.182C460.511 252.586 459.814 255.022 459.117 257.387L456.787 265.003H456.769Z" fill="#002B49"/>
<path d="M480.57 278.946V242.914H488L497.443 260.784L501.167 267.924H501.325C500.867 264.703 500.628 261.19 500.628 257.405V242.941H507.926V278.972H500.549L491.133 261.773L487.268 254.157H487.056C487.594 257.775 487.859 261.296 487.859 264.729V278.972H480.561V278.946H480.57Z" fill="#002B49"/>
<path d="M512.312 260.89C512.312 255.419 513.812 250.909 516.822 247.397C519.831 243.885 523.855 242.111 528.894 242.111C530.853 242.111 532.68 242.438 534.339 243.108C535.998 243.779 537.375 244.635 538.442 245.685C539.519 246.735 540.375 247.724 541.019 248.633C541.663 249.542 542.175 250.433 542.519 251.315L536.245 253.301C535.76 252.604 535.389 252.039 535.062 251.642C534.736 251.236 534.259 250.733 533.642 250.142C533.024 249.55 532.327 249.127 531.55 248.853C530.774 248.589 529.909 248.421 528.947 248.421C526.105 248.421 523.873 249.55 522.267 251.801C520.66 254.051 519.849 257.087 519.849 260.899C519.849 264.711 520.678 267.765 522.346 270.05C524.005 272.336 526.132 273.483 528.682 273.483C530.827 273.483 532.521 272.918 533.809 271.824C535.098 270.721 535.848 269.221 536.121 267.341C536.227 266.591 536.28 265.682 536.28 264.658H528.285V258.41H543.366V278.963H538.398L537.727 276.228C535.768 278.593 532.662 279.74 528.391 279.74C523.828 279.74 520.025 278.019 516.936 274.613C513.857 271.206 512.295 266.644 512.295 260.899H512.321L512.312 260.89Z" fill="#002B49"/>
<path d="M548.176 278.946V242.914H572.515V249.189H555.474V257.237H570.794V263.405H555.474V272.689H572.991V278.937H548.176V278.946Z" fill="#002B49"/>
</g>
<defs>
<clipPath id="clip0_768_129">
<rect width="573" height="279.462" fill="white" transform="translate(0 0.268982)"/>
</clipPath>
</defs>
</svg>
