<?xml version="1.0" encoding="utf-8"?>
<!-- Generator: Adobe Illustrator 16.0.0, SVG Export Plug-In . SVG Version: 6.00 Build 0)  -->
<!DOCTYPE svg PUBLIC "-//W3C//DTD SVG 1.1//EN" "http://www.w3.org/Graphics/SVG/1.1/DTD/svg11.dtd">
<svg version="1.1" id="Layer_1" xmlns="http://www.w3.org/2000/svg" xmlns:xlink="http://www.w3.org/1999/xlink" x="0px" y="0px"
	 width="384.5px" height="63px" viewBox="0 0 384.5 63" enable-background="new 0 0 384.5 63" xml:space="preserve">
<g>
	<path fill="#FFFFFF" d="M227.693,8.44h5.002c1.73,0,2.502,0.167,3.174,0.456c1.59,0.698,2.551,2.309,2.551,4.352
		c0,2.286-1.299,4.043-3.197,4.572v0.047c0,0,0.166,0.217,0.432,0.672l3.68,6.807h-1.901l-3.823-7.118h-4.256v7.118h-1.66V8.44z
		 M233.371,16.738c2.043,0,3.342-1.323,3.342-3.441c0-1.395-0.555-2.427-1.539-2.957c-0.506-0.265-1.109-0.41-2.408-0.41h-3.412
		v6.808H233.371z"/>
	<rect x="243.637" y="8.44" fill="#FFFFFF" width="1.662" height="16.906"/>
	<path fill="#FFFFFF" d="M251.043,8.44h5.461c5.074,0,8.49,3.101,8.49,8.442c0,5.386-3.416,8.464-8.49,8.464h-5.461V8.44z
		 M256.338,23.856c4.156,0,6.922-2.454,6.922-6.974c0-4.498-2.789-6.952-6.922-6.952h-3.635v13.926H256.338z"/>
	<polygon fill="#FFFFFF" points="269.68,8.44 271.34,8.44 271.34,23.856 279.18,23.856 279.18,25.346 269.68,25.346 	"/>
	<polygon fill="#FFFFFF" points="282.982,8.44 292.506,8.44 292.506,9.93 284.639,9.93 284.639,16.086 291.062,16.086 
		291.062,17.577 284.639,17.577 284.639,23.856 292.938,23.856 292.938,25.346 282.982,25.346 	"/>
	<path fill="#FFFFFF" d="M301.162,18.083l-5.701-9.644h1.902l3.582,6.132c0.506,0.866,1.033,2.023,1.033,2.023h0.049
		c0,0,0.506-1.133,1.031-2.023l3.586-6.132h1.877l-5.674,9.644v7.263h-1.686V18.083z"/>
	<rect x="310.635" y="17.771" fill="#FFFFFF" width="6.834" height="1.492"/>
	<polygon fill="#FFFFFF" points="325.475,9.93 319.391,9.93 319.391,8.44 333.193,8.44 333.193,9.93 327.133,9.93 327.133,25.346 
		325.475,25.346 	"/>
	<path fill="#FFFFFF" d="M336.654,8.44h5.008c1.73,0,2.5,0.167,3.172,0.456c1.59,0.698,2.551,2.307,2.551,4.352
		c0,2.286-1.297,4.043-3.199,4.572v0.047c0,0,0.168,0.217,0.434,0.672l3.68,6.807h-1.9l-3.824-7.118h-4.26v7.118h-1.66V8.44z
		 M342.334,16.738c2.045,0,3.342-1.323,3.342-3.443c0-1.393-0.555-2.425-1.537-2.955c-0.506-0.265-1.104-0.41-2.408-0.41h-3.416
		v6.808H342.334z"/>
	<polygon fill="#FFFFFF" points="352.604,8.44 362.124,8.44 362.124,9.932 354.262,9.93 354.262,16.086 360.684,16.086 
		360.684,17.577 354.262,17.577 354.262,23.856 362.559,23.856 362.559,25.347 352.604,25.346 	"/>
	<polygon fill="#FFFFFF" points="367.174,8.44 376.697,8.44 376.697,9.932 368.834,9.932 368.834,16.086 375.256,16.086 
		375.256,17.577 368.834,17.577 368.834,23.856 377.133,23.856 377.133,25.347 367.174,25.347 	"/>
	<path fill="#FFFFFF" d="M80.144,9.077c-1.513,0-2.072,0.623-1.594,2.265l2.877,10.388h0.053l4.856-13.068h0.917l4.776,12.897h0.058
		c1.077-3.385,2.09-6.812,3.159-10.242c0.456-1.497,0.044-2.216-1.906-2.24V8.438h5.31v0.639c-0.721,0-1.695,0.555-2.105,1.878
		l-4.492,14.392h-1.111l-4.851-13.114l-4.834,13.114h-1.189l-3.651-12.922c-0.67-2.358-1.469-3.344-2.745-3.344V8.438h6.472V9.077z"
		/>
	<path fill="#FFFFFF" d="M99.647,24.726c2.175-0.273,2.08-0.149,2.08-2.393V11.459c0-2.239,0.095-2.125-2.08-2.388V8.437h0.025
		h10.947v3.894h-0.633c-0.237-1.78-0.728-3.111-2.464-3.111h-3.277v6.902h2.028c1.521,0,2.168-0.603,2.222-2.103h0.618v5.148h-0.618
		c-0.054-1.429-0.608-2.271-2.222-2.271h-2.028v5.455c0,2.053,0.935,2.226,3.112,2.226c3.498,0,3.333-0.994,4.444-3.578h0.628
		l-0.726,4.347H99.647V24.726z"/>
	<path fill="#FFFFFF" d="M123.409,12.048c-0.196-1.697-1.113-3.055-3.046-3.055c-1.395,0-2.656,0.732-2.656,2.515
		c0,1.689,1.69,2.704,4.111,4.522c2.557,1.903,3.376,3.137,3.376,5.137c0,2.873-2.94,4.472-5.847,4.472
		c-1.54,0-2.871-0.293-4.126-0.773c-0.094-0.05-0.169-0.14-0.169-0.338v-3.476h0.625c0.272,2.681,2.03,3.739,3.891,3.739
		c1.715,0,3.115-1.304,3.115-3.061c0-1.574-0.841-2.849-4.468-5.243c-1.303-0.872-2.918-1.81-2.918-4.439
		c0-2.177,2.41-3.899,5.186-3.899c1.043,0,2.416,0.127,3.384,0.467c0.145,0.046,0.165,0.146,0.165,0.263v3.169H123.409z"/>
	<path fill="#FFFFFF" d="M134.829,22.333c0,2.243-0.088,2.119,2.078,2.393v0.62h-6.666v-0.62c2.177-0.274,2.074-0.15,2.074-2.393
		V9.221h-2.167c-2.105,0-2.59,1.33-3.382,2.924h-0.608l0.654-3.707h13.528l0.65,3.707h-0.606c-0.792-1.594-1.278-2.924-3.377-2.924
		h-2.178V22.333z"/>
	<path fill="#FFFFFF" d="M214.007,22.333c0,2.243-0.099,2.119,2.069,2.393v0.62h-6.662v-0.62c2.172-0.274,2.074-0.15,2.074-2.393
		V9.221h-2.169c-2.101,0-2.584,1.33-3.384,2.924h-0.601l0.649-3.707h13.527l0.646,3.707h-0.596c-0.802-1.594-1.28-2.924-3.387-2.924
		h-2.168V22.333z"/>
	<path fill="#FFFFFF" d="M145.804,12.312h-0.046v9.777c0,0.5,0.066,0.912,0.12,1.303c0.122,0.869,0.939,1.207,2.072,1.334v0.62
		h-5.432v-0.62c1.135-0.127,1.954-0.465,2.082-1.334c0.039-0.391,0.142-0.803,0.142-1.303V11.152
		c-0.49-1.145-1.67-2.081-2.825-2.081V8.437h4.765l6.742,13.511l6.952-13.511h4.105v0.634c-1.768,0-2.415,0.97-2.415,2.49v10.772
		c0,2.244-0.096,2.12,2.072,2.393v0.62h-6.683v-0.62c2.173-0.273,2.075-0.149,2.075-2.393V12.194h-0.046l-6.565,13.303h-0.592
		L145.804,12.312z"/>
	<path fill="#FFFFFF" d="M166.396,17.208c0-5.209,4.133-9.059,9.239-9.059c5.336,0,8.431,4.524,8.431,8.239
		c0,5.095-3.882,9.251-9.314,9.251C170.06,25.64,166.396,21.895,166.396,17.208 M181.143,17.119c0-5.777-3.112-8.125-6.055-8.125
		c-4.11,0-5.797,3.68-5.797,6.959c0,5.852,2.994,8.839,6.104,8.839C179.894,24.792,181.143,20.35,181.143,17.119"/>
	<path fill="#FFFFFF" d="M200.975,25.346c-3.845-4.531-7.833-9.292-11.767-13.935v10.678c0,0.5,0.099,0.912,0.145,1.303
		c0.125,0.869,0.945,1.207,2.537,1.334v0.62h-5.918v-0.62c1.155-0.127,1.957-0.465,2.077-1.334c0.046-0.391,0.142-0.803,0.142-1.303
		V10.717c-0.677-0.871-1.423-1.646-2.798-1.646V8.437h4.738c3.597,4.375,7.34,8.818,10.948,13.189h0.049v-9.924
		c0-0.505-0.098-0.912-0.152-1.301c-0.119-0.867-0.939-1.204-2.533-1.33V8.437h5.915v0.634c-1.133,0.126-1.954,0.463-2.075,1.33
		c-0.046,0.389-0.146,0.796-0.146,1.301v13.644H200.975z"/>
	<path fill="#FFFFFF" d="M79.641,36.623h1.729l4.421,9.924c0.386,0.864,0.82,2.067,0.82,2.067h0.046c0,0,0.456-1.203,0.841-2.067
		l4.422-9.924h1.707l1.344,16.895h-1.658l-0.937-11.823c-0.071-0.915-0.049-2.354-0.049-2.354h-0.049c0,0-0.503,1.49-0.885,2.354
		l-3.966,8.672h-1.562L81.9,41.694c-0.385-0.842-0.915-2.404-0.915-2.404h-0.047c0,0,0.025,1.489-0.047,2.404l-0.938,11.823h-1.658
		L79.641,36.623z"/>
	<path fill="#FFFFFF" d="M99.969,36.623h1.683v10.981c0,2.909,1.873,4.663,4.782,4.663c2.906,0,4.806-1.754,4.806-4.709V36.623
		h1.658v11.006c0,3.75-2.622,6.178-6.44,6.178c-3.845,0-6.489-2.428-6.489-6.178V36.623z"/>
	<path fill="#FFFFFF" d="M118.161,50.367c0,0,1.753,1.854,4.419,1.854c1.852,0,3.365-1.108,3.365-2.934
		c0-4.255-8.434-3.173-8.434-8.41c0-2.429,2.138-4.541,5.26-4.541c2.933,0,4.52,1.631,4.52,1.631l-0.817,1.394
		c0,0-1.491-1.438-3.703-1.438c-2.162,0-3.556,1.418-3.556,2.908c0,4.013,8.436,2.858,8.436,8.41c0,2.521-1.947,4.566-5.12,4.566
		c-3.46,0-5.358-2.162-5.358-2.162L118.161,50.367z"/>
	<polygon fill="#FFFFFF" points="132.193,36.623 141.706,36.623 141.706,38.112 133.851,38.112 133.851,44.266 140.266,44.266 
		140.266,45.756 133.851,45.756 133.851,52.027 142.137,52.027 142.137,53.518 132.193,53.518 	"/>
	<path fill="#FFFFFF" d="M146.054,36.623h1.685v10.981c0,2.909,1.873,4.663,4.782,4.663c2.906,0,4.806-1.754,4.806-4.709V36.623
		h1.655v11.006c0,3.75-2.618,6.178-6.439,6.178c-3.843,0-6.489-2.428-6.489-6.178V36.623z"/>
	<path fill="#FFFFFF" d="M165.327,36.623h1.729l4.421,9.924c0.386,0.864,0.82,2.067,0.82,2.067h0.046c0,0,0.456-1.203,0.841-2.067
		l4.422-9.924h1.707l1.344,16.895h-1.656l-0.939-11.823c-0.071-0.915-0.047-2.354-0.047-2.354h-0.048c0,0-0.508,1.49-0.89,2.354
		l-3.966,8.672h-1.56l-3.965-8.672c-0.385-0.842-0.915-2.404-0.915-2.404h-0.047c0,0,0.025,1.489-0.049,2.404l-0.936,11.823h-1.659
		L165.327,36.623z"/>
	<path fill="#FFFFFF" d="M190.073,49.072c0-3.15,2.718-7.86,6.729-7.86c3.199,0,3.894,2.162,3.894,4.324
		c0,2.647-2.111,8.271-6.705,8.271C190.915,53.807,190.073,51.329,190.073,49.072 M198.488,44.385c0-2.5-1.516-2.597-1.901-2.597
		c-2.597,0-4.301,4.661-4.301,7.787c0,1.25,0.216,3.509,1.996,3.509C197.021,53.084,198.488,48.568,198.488,44.385"/>
	<path fill="#FFFFFF" d="M211.172,42.006l-0.576,0.506h-3.148c-1.18,5.719-3.101,13.336-4.469,16.988h-1.084l3.44-16.988h-2.286
		l0.217-1.011h2.261c1.272-5.118,5.501-5.646,6.509-5.646c0.555,0,1.709,0.094,2.07,0.431l-0.289,1.585l-0.6,0.291
		c-0.338-0.649-1.107-1.394-2.116-1.394c-1.442,0-2.521,0.985-3.103,3.581l-0.262,1.152h3.531L211.172,42.006z"/>
	<path fill="#FFFFFF" d="M228.092,48.135h-6.805l-1.922,5.383h-1.754l6.197-16.896h1.779l6.201,16.896h-1.754L228.092,48.135z
		 M224.676,38.377c0,0-0.359,1.395-0.648,2.187l-2.259,6.127h5.812l-2.207-6.127c-0.289-0.792-0.648-2.187-0.648-2.187H224.676z"/>
	<path fill="#FFFFFF" d="M235.393,36.623h5c1.73,0,2.498,0.168,3.17,0.459c1.586,0.694,2.547,2.303,2.547,4.348
		c0,2.283-1.297,4.035-3.197,4.565v0.046c0,0,0.17,0.219,0.434,0.674l3.68,6.803h-1.9l-3.82-7.114h-4.252v7.114h-1.66V36.623z
		 M241.064,44.914c2.045,0,3.34-1.322,3.34-3.438c0-1.392-0.553-2.426-1.539-2.953c-0.502-0.265-1.105-0.41-2.402-0.41h-3.41v6.802
		H241.064z"/>
	<polygon fill="#FFFFFF" points="255.119,38.113 249.043,38.113 249.043,36.623 262.834,36.623 262.834,38.113 256.779,38.113 
		256.779,53.518 255.119,53.518 	"/>
	<rect x="33.688" y="3.259" fill="#FFFFFF" width="24.623" height="24.623"/>
	<rect x="33.686" y="31.605" fill="#FFFFFF" width="27.701" height="27.699"/>
	<rect x="8.077" y="31.609" fill="#FFFFFF" width="21.891" height="21.889"/>
	<rect x="10.505" y="8.424" fill="#FFFFFF" width="19.458" height="19.46"/>
</g>
</svg>
